<svg width="72" height="103" viewBox="0 0 72 103" fill="none" xmlns="http://www.w3.org/2000/svg">
<rect x="2.5" y="2.5" width="67" height="98" rx="33.5" stroke="black" stroke-width="5"/>
<path d="M36 16.3862C34.7569 16.3862 33.8906 17.2526 33.8906 18.4956V41.7552L34.0601 45.8421L29.1633 40.3804L24.8881 36.124C24.5114 35.7473 23.9841 35.5024 23.3814 35.5024C22.2325 35.5024 21.385 36.3688 21.385 37.5553C21.385 38.1015 21.5922 38.61 22.0442 39.062L34.4368 51.4923C34.8511 51.9254 35.4161 52.1514 36 52.1514C36.565 52.1514 37.13 51.9254 37.5443 51.4923L49.9557 39.062C50.4078 38.61 50.6149 38.1015 50.6149 37.5553C50.6149 36.3688 49.7486 35.5024 48.5997 35.5024C48.0159 35.5024 47.4885 35.7473 47.1119 36.124L42.8178 40.3804L37.9398 45.8233L38.0905 41.7552V18.4956C38.0905 17.2526 37.2242 16.3862 36 16.3862Z" fill="#1C1C1E"/>
</svg>
